<?xml version="1.0" encoding="UTF-8" standalone="no"?>
<svg version="1.1" xmlns="http://www.w3.org/2000/svg"
  viewBox="0 0 48 48" width="144" height="144">
  <g>
    <rect width="48" height="48" fill="dimgray" />
    <g fill="white">
      <path
        d="M 26.88 8.38 Q 31.73 8.38 33.85 11.6 Q 36
          14.78 36 22.03 V 36 H 22.67 V 32.24 H 31.86
          V 22.54 Q 31.86 18.7 31.37 16.47 Q 30.88 14.21
          29.82 13.21 Q 28.78 12.19 26.83 12.19 Q 24.13
          12.19 22.4 14.94 Q 20.68 17.69 19.26 24.44
          L 16.76 36 H 12.37 L 15.18 24.11 Q 15.56 22.38
          16.14 20.39 Q 16.71 18.39 17.13 17.35 L 11.95
          8.83 H 16.45 L 19.04 13.32 Q 20.68 10.67 22.49
          9.54 Q 24.31 8.38 26.88 8.38 Z" />
      <circle cx="24" cy="42" r="2.75" />
    </g>
  </g>
</svg>
